<svg width="75" height="28" viewBox="0 0 75 28" fill="none" xmlns="http://www.w3.org/2000/svg">
<g clip-path="url(#clip0_1_1663)">
<path d="M38.9113 0.0182613C38.562 0.0487711 38.2199 0.135392 37.8982 0.27479C37.3895 0.499929 36.9002 0.936137 36.6956 1.35719C36.5874 1.58666 36.5874 1.60722 36.5874 2.00663C36.5874 2.40604 36.5939 2.43959 36.6837 2.6236C36.9652 3.19186 37.6438 3.63889 38.4513 3.77744C38.9495 3.84722 39.4561 3.82964 39.9483 3.72548C40.6929 3.5274 41.3651 3.03924 41.6249 2.49912C41.9853 1.75768 41.7429 0.974021 41.0014 0.478281C40.4288 0.1081 39.709 -0.0510123 38.9113 0.0182613Z" fill="#011B33"/>
<path d="M44.7172 0.0183484C44.3734 0.0523056 44.0369 0.138822 43.7193 0.274877C43.2095 0.500016 42.7213 0.936224 42.5167 1.35728C42.4085 1.58675 42.4031 1.60731 42.4031 2.00672C42.4031 2.40612 42.4096 2.43968 42.4994 2.62369C42.7808 3.19195 43.4595 3.63898 44.267 3.77752C44.7652 3.84731 45.2718 3.82973 45.7639 3.72557C46.5086 3.52749 47.1808 3.03933 47.4406 2.49921C47.801 1.75777 47.5585 0.974108 46.8171 0.478368C46.2499 0.108188 45.4944 -0.058502 44.7172 0.0183484Z" fill="#011B33"/>
<path d="M6.70992 3.29903C6.66067 3.33048 6.60802 3.35626 6.55298 3.37588C6.08317 3.5908 5.69306 3.94834 5.4381 4.39767C5.34971 4.58162 5.27728 4.77283 5.22162 4.96918C5.17292 5.14994 5.11338 5.39239 5.07983 5.51038C5.04627 5.62836 4.97917 5.88813 4.92396 6.0992C4.86876 6.31027 4.74753 6.7757 4.65012 7.13939C4.44879 7.89057 4.38709 8.12978 4.07536 9.30419C3.9498 9.77287 3.80801 10.3097 3.7593 10.4948C3.71059 10.6799 3.65106 10.8867 3.63807 10.9451C3.60344 11.0533 3.34691 12.0188 3.08713 13.0244C3.01136 13.308 2.9107 13.6922 2.86199 13.873C2.81328 14.0538 2.7202 14.4348 2.63793 14.7205C2.55567 15.0063 2.46475 15.3786 2.42145 15.5518C2.37816 15.725 2.27208 16.1136 2.18874 16.4177C2.10539 16.7219 2.00473 17.1105 1.96035 17.2836C1.91597 17.4568 1.81423 17.8248 1.73846 18.1149C1.66269 18.405 1.57177 18.7525 1.53064 18.8943C1.48951 19.036 1.38452 19.4495 1.28818 19.8132C1.19185 20.1769 1.07711 20.6207 1.02841 20.8004C0.979697 20.98 0.893105 21.3102 0.834656 21.5277C0.776206 21.7453 0.691779 22.0689 0.643071 22.2454C0.397366 23.1567 0.674461 23.7521 1.45054 23.9772C1.47544 23.9848 1.48518 24.0118 1.47544 24.0432C1.4657 24.0746 2.37924 24.0952 10.5492 24.0952C19.6132 24.0952 19.6414 24.0952 19.6619 24.0259C19.6727 23.9772 19.7106 23.9566 19.7702 23.9566C19.9022 23.9566 20.28 23.777 20.5365 23.593C20.9976 23.2682 21.2574 22.8548 21.4446 22.1544C21.5063 21.9163 21.6037 21.5483 21.6611 21.3405C21.7185 21.1327 21.817 20.7549 21.883 20.5092C22.0627 19.837 22.2153 19.2655 22.3051 18.9148C22.3506 18.7416 22.4437 18.392 22.513 18.1355C22.5822 17.879 22.7002 17.4319 22.7738 17.1483C22.8474 16.8648 22.9643 16.4166 23.0336 16.1612C23.1029 15.9057 23.1927 15.5756 23.2306 15.4327C23.2685 15.2899 23.3172 15.0939 23.3453 14.9998C23.3735 14.9056 23.4287 14.6751 23.4763 14.4975C23.5239 14.32 23.6365 13.8946 23.7263 13.5624C23.8963 12.9216 23.9374 12.7614 24.1452 11.9853C24.2145 11.719 24.3087 11.3586 24.3563 11.1886C24.4039 11.0187 24.5089 10.6031 24.5955 10.2708C24.7416 9.70901 24.9808 8.82252 25.0599 8.53893C25.0772 8.47291 25.1259 8.29323 25.1681 8.14061C25.2623 7.77367 25.4149 7.20866 25.5664 6.63391C25.6357 6.37738 25.7299 6.02343 25.7742 5.8535C25.8186 5.68356 25.9139 5.3242 25.9831 5.05685C26.0914 4.64121 26.1076 4.53405 26.0914 4.31216C26.0852 4.16738 26.056 4.0245 26.0048 3.88894C25.8874 3.66114 25.7056 3.47291 25.482 3.34774L25.3326 3.27197H16.0337C10.9226 3.27197 6.72508 3.28496 6.70992 3.29903ZM20.3785 6.25074C20.369 6.32425 20.3527 6.39672 20.3298 6.46722C20.07 7.2368 19.4909 9.27388 19.1131 10.7395C18.8436 11.7926 18.7008 12.3468 18.5968 12.7311C18.5525 12.9118 18.4377 13.3415 18.3511 13.6847C17.929 15.3267 17.8348 15.6936 17.7104 16.1623C17.6346 16.4394 17.5025 16.907 17.4159 17.2014C16.8856 18.9754 16.615 20.0741 16.5771 20.6001L16.5565 20.9021L16.432 20.9367C15.777 21.1371 15.0721 21.0987 14.4426 20.8285C14.0752 20.6505 13.7447 20.4048 13.4684 20.1044L13.2195 19.823L13.0322 19.9615C12.4501 20.4008 11.7782 20.7061 11.0644 20.8556C10.5521 20.9349 10.0294 20.9184 9.52308 20.8069C8.38223 20.4919 7.53038 19.5318 7.17644 18.1604C7.00758 17.5109 6.95996 17.0888 6.95996 16.2651C6.95996 15.8321 6.98052 15.3851 7.00109 15.2596C7.02165 15.134 7.06712 14.8785 7.09851 14.688C7.18112 14.2062 7.30053 13.7315 7.4557 13.2679C7.98499 11.6595 8.77514 10.3455 9.84997 9.26306C11.3069 7.79316 12.8212 7.2249 14.2629 7.58858C14.8143 7.74872 15.3068 8.06665 15.6798 8.50321C15.7772 8.61795 15.8638 8.70129 15.8779 8.68722C15.8919 8.67315 16.1062 7.92088 16.1409 7.73471C16.1614 7.61673 16.4656 7.32881 16.799 7.11016C17.5496 6.63236 18.4027 6.33932 19.2885 6.25507C19.3965 6.24919 19.5035 6.23177 19.6078 6.20311C19.7396 6.18365 19.873 6.17641 20.0061 6.18146C20.3536 6.18146 20.3785 6.18579 20.3785 6.25074Z" fill="#011B33"/>
<path d="M13.5183 10.4928C12.7 10.7211 11.7583 11.8577 11.203 13.2853C10.8953 14.0344 10.7205 14.8315 10.6867 15.6406C10.6488 16.7014 10.822 17.3281 11.2204 17.5814C11.3394 17.6678 11.4866 17.7064 11.6327 17.6896C11.8164 17.701 11.9987 17.6524 12.1523 17.5511C12.9284 17.1625 13.7759 15.9989 14.2868 14.6059C14.6786 13.5419 14.828 12.7734 14.789 11.9897C14.7446 11.1238 14.5401 10.6768 14.1212 10.5176C13.9292 10.4396 13.716 10.4308 13.5183 10.4928Z" fill="#011B33"/>
<path d="M66.9974 6.18577C65.2375 6.41091 63.287 7.90787 61.9102 10.0824C61.4939 10.7895 61.132 11.5273 60.8278 12.2894C60.4833 13.1851 60.2481 14.1191 60.1275 15.0712C60.0457 15.9124 60.0457 16.7596 60.1275 17.6008C60.3807 19.4755 61.1352 20.7083 62.4178 21.3426C62.8637 21.5759 63.3596 21.6973 63.8628 21.6966C64.1405 21.7132 64.4192 21.7002 64.6941 21.6576C65.5643 21.4909 66.3853 21.1286 67.0949 20.5979C67.1605 20.5413 67.2356 20.4966 67.3168 20.4659C67.3991 20.5433 67.4755 20.6269 67.5451 20.7159C67.9872 21.2216 68.5643 21.5907 69.2088 21.7799C69.5725 21.8795 70.3908 21.8882 70.7815 21.8005C71.4782 21.6268 72.1431 21.344 72.7515 20.9627C73.0643 20.7722 73.0762 20.7581 73.126 20.5849C73.6185 18.8596 73.8642 17.9796 73.8534 17.9699C73.7682 17.9806 73.6847 18.0013 73.6044 18.0316C73.31 18.1214 72.8662 18.156 72.6649 18.1041C72.3467 18.0175 72.18 17.7512 72.2189 17.3908C72.2287 17.2934 72.8684 14.7714 73.6423 11.785C74.4162 8.79868 75.0494 6.34164 75.0494 6.33406C75.0494 6.32648 74.0753 6.32432 72.8944 6.32757L70.7426 6.33839L70.5759 6.95752C70.4828 7.2974 70.4027 7.58531 70.3962 7.59181C70.3148 7.52494 70.2421 7.44823 70.1797 7.36342C69.4372 6.44555 68.2898 6.02233 66.9974 6.18577ZM68.4771 9.69167C68.8657 9.9168 69.0562 10.3498 69.1265 11.1821C69.2164 12.0924 69.0334 13.1391 68.5756 14.3417C68.0734 15.6622 67.5884 16.4761 66.8708 17.2035C66.3134 17.7718 65.9118 17.9969 65.4572 17.9969C64.9236 17.9969 64.6021 17.6614 64.4278 16.9232C64.3488 16.5833 64.3196 15.6059 64.3726 15.1177C64.6497 12.6997 66.1607 10.1041 67.5603 9.63971C67.8569 9.54662 68.2693 9.56719 68.4771 9.69167Z" fill="#011B33"/>
<path d="M35.7625 6.33847C35.7625 6.34821 34.875 9.76427 33.7871 13.9293C32.6993 18.0944 31.8118 21.5061 31.8118 21.517C31.8118 21.5278 32.8 21.531 34.009 21.531C36.0743 21.531 36.2096 21.531 36.2269 21.4693C36.2442 21.4076 40.1138 6.55278 40.1484 6.41424L40.169 6.32007H37.9652C36.7529 6.32007 35.7625 6.32765 35.7625 6.33847Z" fill="#011B33"/>
<path d="M41.5783 6.33847C41.5783 6.34821 40.6919 9.76427 39.604 13.9293C38.5162 18.0944 37.6287 21.5061 37.6287 21.517C37.6287 21.5278 38.6158 21.531 39.8259 21.531C41.8901 21.531 42.0254 21.531 42.0427 21.4693C42.06 21.4076 45.935 6.54954 45.9696 6.41424L45.9902 6.32007H43.7864C42.5741 6.32007 41.5783 6.32765 41.5783 6.33847Z" fill="#011B33"/>
<path d="M46.9774 6.4143C46.9849 6.4695 47.3172 9.88556 47.7156 14.0095L48.4397 21.5073L48.1561 21.8742C47.9087 22.1785 47.6461 22.47 47.3692 22.7477C46.7869 23.3301 46.316 23.6688 45.817 23.8561C45.5399 23.9643 45.4815 23.9708 45.1167 23.9741C44.7519 23.9773 44.7054 23.9676 44.5701 23.8875C44.4099 23.7976 44.2854 23.631 44.2854 23.5097C44.2854 23.4718 44.2757 23.4372 44.2616 23.4372C44.2475 23.4372 43.7832 24.0672 43.229 24.8368L42.2278 26.2363V26.4755C42.2278 27.1682 42.8372 27.6748 43.9217 27.8826C45.6157 28.2193 47.2826 27.6954 49.1606 26.233C49.7453 25.7536 50.2868 25.2237 50.7787 24.6495C51.0288 24.3378 51.8114 23.1742 52.2941 22.3981C52.4532 22.1416 54.723 18.4268 57.3381 14.1405L62.092 6.35585H57.6769L57.1541 7.2142C56.2773 8.64946 52.2833 15.1731 52.2649 15.1872C52.2465 15.2012 52.2476 15.1936 52.2411 15.1872C52.2346 15.1807 52.0365 13.1815 51.8005 10.7493L51.3751 6.32446H46.9644L46.9774 6.4143Z" fill="#011B33"/>
<path d="M33.1358 6.40788C32.5816 6.51612 31.7568 6.84733 31.1225 7.22509C30.9666 7.31818 30.9428 7.32575 30.9569 7.27055C30.9666 7.23591 31.0153 7.05407 31.0651 6.85816C31.1149 6.66224 31.1625 6.48364 31.1734 6.44901C31.1907 6.39381 31.0651 6.39056 28.9912 6.39056H26.794L26.7561 6.4988C26.7106 6.64384 22.7339 21.45 22.7339 21.4738C22.7339 21.4976 23.721 21.4944 24.9301 21.4944C26.9953 21.4944 27.1306 21.4944 27.1479 21.4327C27.1544 21.4013 27.6945 19.3913 28.3461 16.9732C29.4134 13.0094 29.5487 12.5353 29.7013 12.2106C30.5531 10.416 31.8661 9.82934 33.4226 10.5448C33.5268 10.5978 33.6355 10.6416 33.7473 10.6758C33.7603 10.6758 33.993 9.75141 34.2593 8.62463C34.8102 6.33103 34.7897 6.53885 34.4639 6.43494C34.2236 6.35917 33.4681 6.34185 33.1358 6.40788Z" fill="#011B33"/>
</g>
<defs>
<clipPath id="clip0_1_1663">
<rect width="74.2948" height="27.9844" fill="white" transform="translate(0.657227)"/>
</clipPath>
</defs>
</svg>
