<svg width="81" height="28" viewBox="0 0 81 28" fill="none" xmlns="http://www.w3.org/2000/svg">
<g clip-path="url(#clip0_1_1603)">
<path d="M1.54791 12.6042H0.0684814V9.33492H1.54791V6.89096C1.54791 4.00028 2.68359 2.21191 7.0595 2.21191H7.26546V5.75529H6.95072C6.09062 5.75529 5.71206 6.13385 5.71206 7.26952V9.33492H7.2263V12.6042H5.71206V27.6755H1.54791V12.6042ZM7.87898 2.90086H12.107V7.02875H7.87898V2.90086ZM7.9138 9.33637H12.0779V27.6755H7.9138V9.33492V9.33637Z" fill="#011B33"/>
<path d="M13.1788 2.21191H17.343V27.6755H13.1788V2.21191Z" fill="#011B33"/>
<path d="M18.306 9.33501H22.5035V11.3308C23.2607 10.2981 24.8097 9.09424 26.2195 9.09424C27.596 9.09424 28.4561 9.61059 28.7316 11.3656C29.5917 10.2299 31.2786 9.09424 32.5578 9.09424C34.2432 9.09424 35.2063 9.78174 35.2063 12.9132V27.6756H31.0436V14.3926C31.0436 13.4643 30.8986 13.0162 30.3547 13.0162C29.9079 13.0162 29.2886 13.4295 28.8404 13.8763V27.6756H24.6777V14.3926C24.6777 13.4643 24.5399 13.0162 24.0236 13.0162C23.5072 13.0162 22.8879 13.4643 22.5093 13.8763V27.6756H18.306V9.33501Z" fill="#011B33"/>
<path d="M36.6799 2.21191H38.1608V11.7484C38.9165 10.7172 40.2248 9.37408 41.8072 9.37408C43.494 9.37408 44.3193 10.4416 44.3193 13.7108V27.6813H42.8399V13.8428C42.8399 11.8804 42.7369 10.7795 41.4982 10.7795C40.5003 10.7795 39.1587 11.95 38.1623 13.2569V27.6755H36.6799V2.21191Z" fill="#011B33"/>
<path d="M45.8684 18.6595C45.8684 12.3966 47.0026 9.36816 49.9963 9.36816C52.9566 9.36816 54.1256 12.3966 54.1256 18.6595C54.1256 24.8528 52.9566 27.9161 49.9963 27.9161C47.036 27.9161 45.8684 24.8528 45.8684 18.6595ZM52.6129 18.6247C52.6129 14.4272 52.3025 10.7446 50.0021 10.7446C47.7989 10.7446 47.3522 14.1168 47.3522 18.6247C47.3522 22.8571 47.6611 26.5397 50.0021 26.5397C52.1995 26.5426 52.6129 23.2066 52.6129 18.6247Z" fill="#011B33"/>
<path d="M55.6747 23.5114V9.6106H57.1541V23.3736C57.1541 25.336 57.2571 26.4369 58.4957 26.4369C59.4936 26.4369 60.8353 25.2664 61.8317 23.9596V9.6106H63.3068V27.6756H61.8274V25.5072C61.076 26.5428 59.7692 27.8482 58.1868 27.8482C56.5 27.8482 55.6747 26.7807 55.6747 23.5114Z" fill="#011B33"/>
<path d="M64.177 24.3032L65.4824 23.8217C66.1365 25.6101 67.0996 26.6079 68.6138 26.6079C70.0933 26.6079 70.7474 25.5767 70.7474 23.9972C70.7474 22.174 69.5087 20.6946 68.1657 19.0774C66.6529 17.2527 65.069 15.3948 65.069 13.0552C65.069 10.8796 66.4803 9.30444 68.579 9.30444C70.54 9.30444 71.5379 10.5779 72.3298 12.7115L71.0244 13.193C70.5081 11.7426 69.8887 10.6809 68.5805 10.6809C67.3766 10.6809 66.5847 11.6788 66.5847 13.0552C66.5847 15.051 67.996 16.5652 69.3028 18.1128C70.8518 20.0056 72.2631 21.8303 72.2631 23.9972C72.2631 26.3382 70.9896 27.9887 68.6153 27.9887C66.4092 27.9844 65.1024 26.7805 64.177 24.3032Z" fill="#011B33"/>
<path d="M73.1202 18.6595C73.1202 12.2588 74.2893 9.36816 77.2496 9.36816C80.6218 9.36816 81.1033 14.0095 81.1033 18.4869V18.6595H74.5997C74.5997 23.7186 75.116 26.5397 77.2829 26.5397C78.8668 26.5397 79.2787 25.3692 79.6573 22.7207L80.9626 22.8571C80.5159 26.6426 79.0771 27.9161 77.2119 27.9161C74.2893 27.9161 73.1202 24.9906 73.1202 18.6595ZM79.5891 17.3542C79.5543 13.6716 79.1409 10.7461 77.2496 10.7461C75.322 10.7461 74.8404 12.8463 74.5997 17.3542H79.5891Z" fill="#011B33"/>
<path d="M40.7019 4.9561C40.7019 2.79207 42.1625 2.01465 43.42 2.01465C44.8269 2.01465 45.4245 2.79207 45.7653 3.66668L44.6557 4.06119C44.4324 3.42155 44.0277 3.11262 43.3982 3.11262C42.6527 3.11262 42.0232 3.60286 42.0232 4.9561C42.0232 6.15994 42.5135 6.82134 43.3779 6.82134C43.9741 6.82134 44.3932 6.64003 44.6993 5.84085L45.7856 6.23682C45.381 7.14333 44.7094 7.899 43.346 7.899C42.0348 7.89755 40.7019 7.02439 40.7019 4.9561Z" fill="#011B33"/>
<path d="M46.553 0H47.8961V1.14003H46.553V0ZM46.5646 2.12051H47.8859V7.77714H46.5646V2.12051Z" fill="#011B33"/>
<path d="M49.0927 2.12054H50.4154V2.88781C50.6816 2.6084 51.0025 2.3869 51.3581 2.23716C51.7137 2.08742 52.0964 2.01266 52.4823 2.01756C53.4744 2.01756 54.1125 2.59773 54.1125 3.72325V7.78442H52.7912V4.0496C52.7912 3.42157 52.5258 3.13293 51.95 3.13293C51.3742 3.13293 50.8941 3.43172 50.4154 3.86829V7.78442H49.0927V2.12054Z" fill="#011B33"/>
<path d="M54.8783 4.9561C54.8783 2.80368 56.4012 2.01465 57.5746 2.01465C58.8423 2.01465 60.0577 2.77177 60.0577 5.07358V5.38252H56.188C56.2417 6.39781 56.8712 6.85324 57.7023 6.85324C57.9991 6.8646 58.2948 6.81133 58.5691 6.69714C58.8433 6.58294 59.0894 6.41054 59.2905 6.19185L59.9823 6.875C59.6856 7.20933 59.3189 7.47426 58.9084 7.65098C58.4978 7.8277 58.0533 7.91188 57.6065 7.89755C56.188 7.89755 54.8783 7.03455 54.8783 4.9561ZM58.8539 4.40204C58.7785 3.53179 58.352 3.08071 57.563 3.08071C56.9234 3.08071 56.3374 3.44331 56.2098 4.40204H58.8539Z" fill="#011B33"/>
<path d="M60.8889 2.12054H62.1943V2.90087C62.4355 2.6234 62.7335 2.40086 63.068 2.24824C63.4025 2.09563 63.7658 2.01647 64.1335 2.01611C65.0821 2.01611 65.4563 2.38887 65.6796 2.94293C65.9263 2.65758 66.2304 2.42752 66.572 2.2678C66.9137 2.10809 67.2853 2.02232 67.6624 2.01611C68.8126 2.01611 69.3144 2.70941 69.3144 3.72181V7.78298H68.009V4.0496C68.009 3.42157 67.8277 3.13294 67.2098 3.13294C66.6761 3.13294 66.2497 3.43172 65.7594 3.86975V7.78588H64.454V4.0496C64.454 3.42157 64.2727 3.13294 63.6549 3.13294C63.1327 3.13294 62.6961 3.43172 62.2044 3.86975V7.78588H60.8991V2.12925L60.8889 2.12054Z" fill="#011B33"/>
<path d="M70.0555 6.41671C70.0555 5.19111 71.0998 4.37017 73.7425 4.07138V3.90169C73.7425 3.33602 73.4452 3.0909 72.8157 3.0909C72.0267 3.0909 71.387 3.47526 70.9084 3.85817L70.2688 3.03724C71.0215 2.3733 71.9934 2.01162 72.997 2.02194C74.5098 2.02194 75.0276 2.74715 75.0276 4.06848V6.39496C75.0276 7.07665 75.0711 7.49292 75.1886 7.78011H73.8658C73.78 7.54801 73.7368 7.30234 73.7382 7.0549C73.158 7.63506 72.4908 7.86423 71.6496 7.86423C70.7372 7.86568 70.0555 7.35368 70.0555 6.41671ZM73.7498 6.2035V4.95614C72.1833 5.16935 71.3522 5.55371 71.3522 6.17159C71.3522 6.61832 71.6612 6.85329 72.1412 6.85329C72.439 6.85652 72.7344 6.80076 73.0105 6.68923C73.2865 6.57771 73.5378 6.41262 73.7498 6.2035Z" fill="#011B33"/>
<path d="M75.6934 7.00264L76.407 6.20346C76.9036 6.62913 77.534 6.86682 78.1881 6.875C78.8915 6.875 79.3165 6.6937 79.3165 6.22521C79.3165 5.75673 78.7363 5.62764 78.059 5.46809C77.0858 5.24328 75.9254 4.98801 75.9254 3.67683C75.9254 2.68619 76.7783 2.01465 78.0242 2.01465C79.1018 2.01465 79.7647 2.32359 80.3448 2.81383L79.7168 3.66667C79.2609 3.30202 78.7039 3.08632 78.1214 3.0488C77.3961 3.0488 77.1626 3.30407 77.1626 3.62896C77.1626 4.0873 77.7283 4.22509 78.3998 4.37448C79.3687 4.58769 80.5523 4.83281 80.5523 6.15414C80.5523 7.34784 79.4761 7.9019 78.1866 7.9019C77.1423 7.89755 76.2054 7.52479 75.6934 7.00264Z" fill="#011B33"/>
</g>
<defs>
<clipPath id="clip0_1_1603">
<rect width="80.7242" height="27.9844" fill="white" transform="translate(0.223877)"/>
</clipPath>
</defs>
</svg>
