<svg width="90" height="28" viewBox="0 0 90 28" fill="none" xmlns="http://www.w3.org/2000/svg">
<g clip-path="url(#clip0_1_1636)">
<path d="M6.39363 27.672C5.82053 27.5838 5.2656 27.5127 4.72883 27.4587C4.20312 27.4049 3.67503 27.3779 3.14658 27.3777C2.70832 27.3802 2.27054 27.4072 1.8353 27.4587C1.3546 27.5116 0.829258 27.5827 0.259272 27.672L0.117554 27.2438C0.740489 26.9582 1.14592 26.6634 1.33384 26.3592C1.55913 25.9667 1.70812 25.2706 1.78079 24.2708C1.82128 23.5555 1.82128 21.9654 1.78079 19.5007C1.75068 17.8582 1.71746 16.4696 1.68112 15.3348C1.64478 14.2 1.60118 13.303 1.55031 12.6437C1.52227 12.0208 1.41482 11.5442 1.23884 11.2234C1.06286 10.9026 0.709343 10.6254 0.1487 10.3388L0.246813 9.85606C0.966303 10.0897 1.87942 10.2059 2.98617 10.2049C3.95109 10.1982 4.91148 10.0721 5.84545 9.82959L5.98872 10.3388C5.36579 10.642 4.97853 10.9727 4.82695 11.3309C4.70651 11.5987 4.6546 12.0986 4.67121 12.8306C4.67121 13.0626 4.68056 13.357 4.68679 13.7152C4.69302 14.0733 4.68679 14.4564 4.68679 14.9205C4.68679 15.3846 4.67588 15.7958 4.68679 16.1524C4.69769 16.509 4.69769 16.7753 4.7008 17.0105C4.7008 17.3484 4.73506 18.1536 4.78334 19.4212C4.83162 20.6889 4.89391 22.4487 4.96866 24.6991C4.99877 25.3957 5.11973 25.9226 5.33152 26.2798C5.54332 26.6369 5.93941 26.9582 6.51977 27.2438L6.39363 27.672Z" fill="#011B33"/>
<path d="M16.085 25.6864C14.4987 27.1895 12.3897 28.0162 10.2045 27.9912C9.3081 27.9998 8.41444 27.8914 7.5461 27.6689L7.53831 27.2437C8.24742 26.9042 8.55214 24.9217 8.45247 21.2962L8.35436 18.7515C8.33878 17.8047 8.28687 16.2416 8.19862 14.0624C8.17059 13.4737 8.14463 13.0065 8.12075 12.6608C8.09584 12.3119 8.07403 12.0846 8.05535 11.9771C7.87677 11.1704 7.42982 10.7567 6.71448 10.7359V10.2812C7.42607 10.1911 8.13061 10.0522 8.82311 9.86536C9.51769 9.67848 10.2091 9.45889 10.9022 9.20972L11.1186 9.31562C11.1186 9.37012 11.1186 9.45422 11.1093 9.57102C11.0999 9.68782 11.0999 9.80773 11.1093 9.93232C11.1148 10.0392 11.1148 10.1463 11.1093 10.2531C11.1093 10.3606 11.0999 10.4244 11.0999 10.4416V11.8338L11.2012 17.596C12.1574 16.1497 13.3321 15.4266 14.7254 15.4266C15.9402 15.4266 16.8953 15.8995 17.5909 16.8454C18.2139 17.6676 18.5357 18.7214 18.5565 20.0067C18.5783 22.242 17.7545 24.1353 16.085 25.6864ZM13.4188 17.2767C11.8615 17.1729 11.1098 18.6103 11.1638 21.589C11.1638 22.0562 11.1794 22.4642 11.1856 22.8224C11.1918 23.1806 11.2012 23.5139 11.2167 23.8269C11.2323 24.1399 11.2494 24.4498 11.2728 24.7613C11.2962 25.0728 11.3195 25.3998 11.3429 25.7393C11.4831 26.5595 11.8563 26.9701 12.4626 26.9712C13.4645 26.9712 14.2733 26.2122 14.889 24.6943C15.3576 23.5792 15.5919 22.3796 15.5773 21.1701C15.5337 18.6638 14.8142 17.366 13.4188 17.2767Z" fill="#011B33"/>
<path d="M28.2711 25.5306C27.1364 27.0131 25.6828 27.7544 23.9106 27.7544C22.4467 27.7544 21.3046 27.2992 20.4844 26.3887C19.7203 25.5311 19.3247 24.3433 19.2977 22.8255C19.236 21.0288 19.7596 19.2607 20.7897 17.7875C21.94 16.1803 23.4356 15.3767 25.2764 15.3767C26.7226 15.3767 27.8392 15.9218 28.6262 17.0119C29.3395 17.9754 29.7096 19.2078 29.7366 20.709C29.7709 22.5643 29.2824 24.1715 28.2711 25.5306ZM26.5923 18.7515C26.0971 16.9865 25.3138 16.104 24.2423 16.104C22.5998 16.104 21.8061 17.6935 21.8611 20.8726C21.8838 22.1365 22.0883 23.3906 22.4685 24.5962C22.9959 26.2573 23.787 27.0879 24.8419 27.0879C26.4127 27.0879 27.1727 25.5965 27.1218 22.6137C27.1043 21.3094 26.9265 20.0123 26.5923 18.7515Z" fill="#011B33"/>
<path d="M49.1738 27.672C48.7611 27.6019 48.3406 27.5474 47.9123 27.5163C47.4841 27.4851 47.0356 27.4633 46.5715 27.4633C46.3036 27.4633 45.9402 27.4763 45.4813 27.5023C45.025 27.5303 44.4862 27.5786 43.8617 27.658L43.7465 27.1487C44.4037 26.9712 44.8273 26.6857 45.0172 26.2922C45.1543 25.9698 45.2166 25.4528 45.2041 24.7349L45.1854 23.6899V23.422C45.1652 23.2445 45.1527 23.0561 45.1496 22.8598C45.1465 22.6636 45.1418 22.4129 45.1372 22.1621L45.1185 21.0907C45.0987 19.877 45.0307 19.0558 44.9145 18.627C44.6466 17.6085 44.1109 17.0992 43.3073 17.0992C42.1652 17.0992 41.4992 17.8135 41.3092 19.2421C41.2685 19.504 41.2461 19.7683 41.2423 20.0333C41.2298 20.3821 41.2205 20.8322 41.2127 21.3866C41.1981 21.6358 41.1935 21.8953 41.1987 22.1653C41.1987 22.4347 41.208 22.6932 41.2127 22.9439C41.2376 24.3206 41.2786 25.1247 41.3357 25.3562C41.5288 26.2315 42.0121 26.8025 42.7856 27.0693L42.661 27.605C42.2713 27.5243 41.8763 27.4723 41.479 27.4493C41.0315 27.4234 40.5222 27.4099 39.9512 27.4088C39.0734 27.4052 38.1975 27.4934 37.338 27.672L37.2492 27.1908C38.0144 26.9759 38.4489 26.2704 38.5527 25.0744C38.5667 24.9311 38.5761 24.6321 38.5761 24.1758C38.5761 23.7195 38.5761 23.0856 38.5574 22.2867C38.5449 21.6264 38.5216 21.0409 38.4858 20.5456C38.4499 20.0504 38.4126 19.6112 38.3705 19.2608C38.1463 17.7242 37.6687 16.956 36.9378 16.956C36.2764 16.956 35.7459 17.2674 35.3462 17.8904C34.8592 18.6587 34.6355 20.1682 34.675 22.4191C34.6988 23.7948 34.7409 24.6772 34.8011 25.0666C34.9838 26.2626 35.4157 26.9593 36.0968 27.1565L36.0252 27.6642C35.1772 27.4799 34.3124 27.3839 33.4447 27.3777C32.5374 27.367 31.6317 27.4568 30.7442 27.6455L30.6025 27.1643C31.3812 26.8061 31.8411 26.0555 31.9823 24.9124C31.9979 24.8242 31.9906 23.8778 31.9605 22.0734C31.9387 20.8587 31.9216 19.903 31.9091 19.2063C31.8967 18.4931 31.8795 18.0368 31.8593 17.8405C31.8281 17.0722 31.7212 16.5718 31.5385 16.3393C31.4637 16.2147 31.1678 16.0994 30.6477 15.992L30.4919 15.939V15.4827C32.3275 15.2502 33.6969 14.9018 34.6002 14.4377L34.8618 14.785C34.8291 15.0358 34.8073 15.3161 34.7964 15.6291C34.7855 15.9421 34.7809 16.2847 34.7871 16.6601C34.7871 16.8392 34.7871 16.9902 34.7871 17.1148C34.7855 17.2144 34.7965 17.3138 34.8198 17.4107C35.8269 15.8534 37.0364 15.0747 38.4484 15.0747C39.6818 15.0747 40.5887 15.8606 41.1691 17.4325C42.2384 15.9375 43.5139 15.1894 44.9954 15.1884C46.8871 15.1884 47.8558 16.4566 47.9014 18.993C47.9014 19.1347 47.9014 19.3044 47.9108 19.5007C47.9201 19.6969 47.9108 19.876 47.8937 20.0909L47.8469 22.0204C47.8324 22.2343 47.8277 22.4663 47.8329 22.7166C47.8329 22.9673 47.8423 23.2429 47.8469 23.5466C47.8729 25.0126 47.9596 25.8878 48.107 26.1723C48.3281 26.5647 48.7268 26.8861 49.303 27.1363L49.1738 27.672Z" fill="#011B33"/>
<path d="M73.1646 27.6424C72.2052 27.4332 71.2265 27.3257 70.2446 27.3216C69.7436 27.3226 69.2431 27.3491 68.7449 27.401C68.2039 27.459 67.6667 27.5484 67.1361 27.6689L67.0302 27.2141C67.9221 26.75 68.3685 26.1271 68.3695 25.3453C68.3695 24.7016 68.0923 23.4599 67.5379 21.6202C66.717 21.3496 65.8576 21.2139 64.9932 21.2184C63.8314 21.2184 62.9739 21.4151 62.4205 21.8086C61.9645 22.8672 61.7191 24.0045 61.6979 25.1569C61.6979 26.1951 62.217 26.8559 63.2552 27.1394L63.1213 27.6751C62.4333 27.5359 61.7333 27.4644 61.0314 27.4617C60.4102 27.4576 59.7905 27.5203 59.1828 27.6486L59.1018 27.2733C59.6905 26.6846 60.2174 25.7829 60.6825 24.5682C61.022 23.7106 61.3257 22.8801 61.5935 22.0765C61.8614 21.2729 62.1028 20.4942 62.3177 19.7405L64.1632 13.4146C64.2332 13.237 64.3672 12.7807 64.5649 12.0488C64.5212 11.886 64.4579 11.7291 64.3765 11.5816C64.2877 11.4118 64.1709 11.2109 64.0292 10.9789L64.1351 10.6845C65.4049 10.3097 66.3699 9.79062 67.0302 9.1272L67.2981 9.26113C67.3874 9.72522 67.4912 10.2339 67.6096 10.7873C67.7279 11.3407 67.8753 11.9392 68.0518 12.5829C68.1422 12.8695 68.2761 13.3507 68.4536 14.0297C68.6312 14.7087 68.8741 15.587 69.1778 16.6554C70.2679 20.7107 71.1504 23.5508 71.8253 25.1756C72.2551 26.2304 72.7373 26.9094 73.272 27.2126L73.1646 27.6424ZM65.993 16.2287C65.7953 15.5684 65.6177 14.9921 65.4557 14.5C65.2938 14.0079 65.1443 13.5859 65.001 13.2277L62.665 20.8586C63.456 20.5779 64.2911 20.4418 65.1303 20.4568C65.3794 20.4568 65.6831 20.475 66.0413 20.5113C66.3995 20.5477 66.8013 20.5996 67.2467 20.6671L65.993 16.2287Z" fill="#011B33"/>
<path d="M78.9531 27.6688L78.7117 27.7233C78.6214 27.7046 78.4657 27.6828 78.2445 27.6564C78.0234 27.6299 77.7213 27.5894 77.3459 27.5349C76.6669 27.429 76.301 27.3792 76.248 27.3792C75.4158 27.3608 74.585 27.4583 73.7796 27.6688L73.6239 27.1066C73.9411 26.9841 74.2213 26.7816 74.4371 26.5188C74.653 26.2561 74.7972 25.9419 74.8558 25.6069C74.9108 25.3743 74.9378 24.6865 74.9367 23.5434V22.9812C74.9367 22.7492 74.9461 22.4813 74.9632 22.1761C74.9803 21.8709 74.9897 21.6061 74.9897 21.3725V20.8103C74.9897 21.7208 75.0167 21.1311 75.0707 19.0412C75.1236 17.0768 74.686 16.0324 73.7578 15.9078V15.478C74.4775 15.4121 75.1922 15.3003 75.8976 15.1431C76.5649 14.9958 77.2191 14.7942 77.8536 14.5405L78.1215 14.8628C78.0857 15.1478 78.0545 15.6415 78.0281 16.3221C78.0016 17.0026 77.9704 17.9074 77.9346 19.0147C77.9159 19.3262 77.9081 19.6766 77.9081 20.0861V25.1506C78.0327 26.1888 78.4522 26.8408 79.1665 27.1066L78.9531 27.6688ZM77.5063 13.0532C77.1308 13.3185 76.6796 13.4551 76.22 13.4425C75.8042 13.4531 75.3974 13.3206 75.0676 13.0672C74.9156 12.9567 74.7925 12.8113 74.7085 12.6433C74.6244 12.4753 74.582 12.2895 74.5848 12.1017C74.5868 11.8879 74.6455 11.6786 74.755 11.495C74.8644 11.3113 75.0207 11.1601 75.2077 11.0567C75.5643 10.8199 75.9852 10.6986 76.4131 10.7094C76.8266 10.699 77.232 10.826 77.5655 11.0707C77.7177 11.1777 77.8413 11.3204 77.9255 11.4863C78.0097 11.6522 78.0518 11.8362 78.0483 12.0222C78.0517 12.2258 78.0038 12.4268 77.9091 12.607C77.8144 12.7872 77.6759 12.9406 77.5063 13.0532Z" fill="#011B33"/>
<path d="M88.9871 18.2515C88.8413 18.4057 88.6644 18.5271 88.4682 18.6077C88.2719 18.6882 88.0607 18.7261 87.8487 18.7187C87.3472 18.7187 86.9719 18.3553 86.7227 17.6286C86.5794 17.2538 86.3474 17.0659 86.0266 17.0648C85.0081 17.0648 84.3851 17.708 84.1578 18.9944C83.9392 20.3138 83.8407 21.6502 83.8634 22.9874C83.8634 24.3101 83.8904 25.1137 83.9444 25.3981C84.1043 26.3087 84.5326 26.916 85.2292 27.2202L84.9894 27.675C84.1549 27.4751 83.3011 27.3676 82.4431 27.3542C81.5854 27.3633 80.7316 27.4709 79.8984 27.675V27.1393C80.4508 26.9077 80.8256 26.4525 81.0228 25.7735C81.1267 25.381 81.1786 24.7581 81.1786 23.9047V19.4974C81.1786 19.3012 81.1786 19.0302 81.1646 18.6673C81.1505 18.3045 81.1412 17.8809 81.1241 17.381C81.1069 16.9698 81.0119 16.6755 80.8422 16.4964C80.6724 16.3173 80.3563 16.1662 79.8922 16.0401V15.5636C80.5858 15.4949 81.2745 15.3831 81.9541 15.2287C82.6111 15.0784 83.2557 14.8779 83.8821 14.6292L84.1765 14.9764C84.1765 15.0481 84.1765 15.1555 84.164 15.2988C84.1515 15.4421 84.1406 15.6383 84.1235 15.8875C84.1064 16.1367 84.097 16.3173 84.097 16.4777V17.3888C84.9723 15.9955 86.0624 15.2988 87.3674 15.2988C87.9 15.28 88.4219 15.4505 88.8407 15.78C89.0342 15.9381 89.1882 16.139 89.2907 16.3668C89.3931 16.5947 89.4411 16.8432 89.4309 17.0929C89.4408 17.5224 89.2814 17.9385 88.9871 18.2515Z" fill="#011B33"/>
<path d="M45.8021 8.71125C45.676 8.73461 53.62 11.7543 54.3504 20.2885V14.0202C54.2865 13.9657 51.1625 8.32347 45.8021 8.71125Z" fill="#011B33"/>
<path d="M62.8986 8.71125C63.0232 8.73461 55.0807 11.7543 54.3503 20.2885V14.0202C54.4142 13.9657 57.5367 8.32347 62.8986 8.71125Z" fill="#011B33"/>
<path d="M61.3614 0.00889555C61.6573 0.0898772 55.7114 1.12395 54.3534 5.1341V2.94915C54.4157 2.8526 56.6987 -0.28077 61.3614 0.00889555Z" fill="#011B33"/>
<path d="M47.3376 0.00889555C47.0433 0.0898772 52.9876 1.12395 54.3456 5.1341V2.94915C54.2849 2.8526 52.0018 -0.28077 47.3376 0.00889555Z" fill="#011B33"/>
<path d="M62.1775 4.83672C62.5077 4.93016 55.8703 6.12931 54.3503 10.7811V7.85484C54.5263 7.77697 57.342 4.61869 62.1775 4.83672Z" fill="#011B33"/>
<path d="M46.5263 4.83672C46.1962 4.93016 52.832 6.12931 54.3535 10.7811V7.85484C54.1744 7.77697 51.3541 4.61869 46.5263 4.83672Z" fill="#011B33"/>
</g>
<defs>
<clipPath id="clip0_1_1636">
<rect width="89.3118" height="27.9844" fill="white" transform="translate(0.117554)"/>
</clipPath>
</defs>
</svg>
