<svg width="69" height="28" viewBox="0 0 69 28" fill="none" xmlns="http://www.w3.org/2000/svg">
<g clip-path="url(#clip0_2_2080)">
<path d="M34.4737 27.9843C53.2375 27.9843 68.447 21.7185 68.447 13.9945C68.447 6.26581 53.2375 0 34.4737 0C15.71 0 0.495911 6.26581 0.495911 13.9945C0.495911 21.7185 15.71 27.9843 34.4737 27.9843Z" fill="#011B33"/>
<path d="M42.9753 10.5425L43.8651 6.99731H32.2658L31.3807 10.5425H35.1773L33.3139 17.9917H37.3108L39.1741 10.5425H42.9753Z" fill="white"/>
<path d="M31.2688 6.99731H25.4832L21.7984 15.1452V6.99731H16.1945L12.6868 20.9871H16.5391L18.8218 11.9587V20.9871H21.7984L26.1819 11.9587L24.081 20.9871H27.7611L31.2688 6.99731Z" fill="white"/>
<path d="M56.2563 6.99731H52.5762L50.6523 14.4418L48.8961 6.99731H44.862L41.3589 20.9871H45.0436L46.9675 13.375L48.8961 20.9871H52.7532L56.2563 6.99731Z" fill="white"/>
<path d="M33.0624 18.9885L32.5593 20.9871H36.5608L37.0593 18.9885H33.0624Z" fill="white"/>
</g>
<defs>
<clipPath id="clip0_2_2080">
<rect width="67.7041" height="27.9844" fill="white" transform="translate(0.733887)"/>
</clipPath>
</defs>
</svg>
