<svg width="148" height="28" viewBox="0 0 148 28" fill="none" xmlns="http://www.w3.org/2000/svg">
<g clip-path="url(#clip0_1_1622)">
<path d="M39.9495 22.6942V27.9843H36.6316V10.7628H39.9495V11.5867C40.9376 10.9442 42.0888 10.5976 43.2673 10.5876C47.035 10.5876 49.8054 13.5829 49.8054 17.1515C49.8054 20.72 47.0608 23.7153 43.2673 23.7153C42.0837 23.7173 40.9271 23.3614 39.9495 22.6942ZM39.9495 15.581V18.6261C40.2112 19.1834 40.6179 19.66 41.1271 20.0061C41.6362 20.3523 42.2291 20.5551 42.8436 20.5935C43.458 20.6319 44.0715 20.5044 44.6198 20.2243C45.1681 19.9443 45.631 19.522 45.96 19.0016C46.2891 18.4813 46.4722 17.882 46.4902 17.2666C46.5082 16.6512 46.3604 16.0423 46.0624 15.5036C45.7643 14.9649 45.3269 14.5163 44.7959 14.2046C44.2649 13.893 43.66 13.7298 43.0443 13.7322C42.4078 13.7233 41.7813 13.8914 41.2348 14.2179C40.6883 14.5443 40.2433 15.0163 39.9495 15.581Z" fill="#011B33"/>
<path d="M51.6025 7.29195C51.5917 7.0408 51.6323 6.79009 51.722 6.55522C51.8116 6.32036 51.9483 6.10632 52.1237 5.92624C52.2991 5.74617 52.5095 5.60389 52.742 5.50813C52.9744 5.41237 53.224 5.36517 53.4753 5.36943C53.7301 5.36501 53.9832 5.41154 54.2198 5.50628C54.4564 5.60103 54.6717 5.74209 54.853 5.92118C55.0343 6.10027 55.178 6.31378 55.2757 6.54917C55.3734 6.78457 55.423 7.0371 55.4218 7.29195C55.4164 7.8045 55.2089 8.29421 54.8444 8.65458C54.4799 9.01495 53.9879 9.21683 53.4753 9.21631C53.2253 9.21515 52.9781 9.1642 52.748 9.06644C52.518 8.96867 52.3097 8.82606 52.1353 8.64691C51.961 8.46776 51.8241 8.25568 51.7326 8.02304C51.6411 7.7904 51.5969 7.54186 51.6025 7.29195ZM51.8035 10.7628H55.1729V23.5163H51.8035V10.7628Z" fill="#011B33"/>
<path d="M57.1674 17.1034C57.1607 16.2451 57.3256 15.394 57.6525 14.6003C57.9794 13.8065 58.4617 13.0862 59.071 12.4815C59.6803 11.8769 60.4043 11.4001 61.2005 11.0793C61.9967 10.7585 62.849 10.6 63.7073 10.6133C64.8809 10.6139 66.036 10.9052 67.0694 11.4612V10.7626H70.3652V22.7917C70.3652 26.1096 67.4934 27.9086 63.9009 27.9086C61.5544 27.9086 59.3075 27.21 57.8347 26.0654L59.2079 23.6949C60.6076 24.5916 62.2387 25.0599 63.9009 25.0424C66.2215 25.0424 66.9459 24.1207 67.0455 22.6222C66.0458 23.2616 64.8865 23.6071 63.6999 23.6194C59.8807 23.6157 57.1674 20.7715 57.1674 17.1034ZM67.0694 18.5246V15.6804C66.7906 15.087 66.3497 14.5845 65.7975 14.231C65.2453 13.8774 64.6044 13.6872 63.9488 13.6823C63.496 13.678 63.0469 13.7631 62.6272 13.9329C62.2074 14.1027 61.8254 14.3538 61.503 14.6717C61.1807 14.9896 60.9243 15.3681 60.7487 15.7854C60.5731 16.2028 60.4817 16.6507 60.4798 17.1034C60.4798 19.0739 61.9765 20.4471 63.9248 20.4471C64.5786 20.4641 65.2233 20.2917 65.7813 19.9506C66.3392 19.6095 66.7866 19.1142 67.0694 18.5246Z" fill="#011B33"/>
<path d="M72.3651 17.1034C72.3583 16.2451 72.5233 15.394 72.8502 14.6003C73.1771 13.8065 73.6593 13.0862 74.2686 12.4815C74.8779 11.8769 75.602 11.4001 76.3982 11.0793C77.1944 10.7585 78.0466 10.6 78.9049 10.6133C80.0809 10.6129 81.2387 10.9043 82.2744 11.4612V10.7626H85.5683V22.7917C85.5683 26.1096 82.6984 27.9086 79.1059 27.9086C76.7594 27.9086 74.5125 27.21 73.0397 26.0654L74.4129 23.6949C75.8125 24.5919 77.4437 25.0603 79.1059 25.0424C81.4265 25.0424 82.1509 24.1207 82.2505 22.6222C81.2507 23.2613 80.0915 23.6068 78.9049 23.6194C75.0857 23.6157 72.3651 20.7715 72.3651 17.1034ZM82.2744 18.5246V15.6804C81.9955 15.0871 81.5545 14.5848 81.0023 14.2312C80.4502 13.8777 79.8094 13.6874 79.1538 13.6823C78.701 13.678 78.2519 13.7631 77.8322 13.9329C77.4124 14.1027 77.0304 14.3538 76.708 14.6717C76.3857 14.9896 76.1293 15.3681 75.9537 15.7854C75.7781 16.2028 75.6867 16.6507 75.6848 17.1034C75.6848 19.0739 77.1815 20.4471 79.1298 20.4471C79.7835 20.4639 80.4282 20.2914 80.9861 19.9503C81.544 19.6092 81.9914 19.1141 82.2744 18.5246Z" fill="#011B33"/>
<path d="M90.4087 10.7627L93.7542 19.273L97.1975 10.7627H100.7L93.3543 27.9843H90.2355L92.0787 23.3927L86.7167 10.7627H90.4087Z" fill="#011B33"/>
<path d="M100.064 10.7627H103.632L106.884 19.3744L110.104 10.7627H113.606L108.489 23.5162H105.133L100.064 10.7627Z" fill="#011B33"/>
<path d="M113.842 17.0519C113.842 13.4594 116.412 10.488 120.43 10.488C124.15 10.488 126.975 13.2843 127.044 16.9579C127.069 17.2738 127.069 17.5913 127.044 17.9072H116.987C117.086 19.7043 118.808 20.8767 120.655 20.8767C122.177 20.8767 123.075 20.4527 124.124 19.5864L125.947 21.5089C124.472 23.0554 122.998 23.7798 120.655 23.7798C116.338 23.7669 113.842 20.5467 113.842 17.0519ZM117.16 15.5294H123.6C123.276 14.3331 122.126 13.2843 120.38 13.2843C118.358 13.2843 117.51 14.3073 117.16 15.5294Z" fill="#011B33"/>
<path d="M127.74 22.1449L129.372 19.4979C130.836 20.4738 132.552 21.0028 134.312 21.0205C135.985 21.0205 136.833 20.5965 136.833 19.874C136.833 19.3984 136.433 19.05 135.585 18.8749L132.083 18.1265C129.514 17.5736 128.339 16.3552 128.339 14.3589C128.339 12.2373 130.137 10.4641 133.856 10.4641C136.101 10.4641 138.096 11.1148 139.471 11.9627L137.948 14.5082C136.826 13.9092 135.329 13.2603 133.755 13.2603C132.334 13.2603 131.51 13.6106 131.51 14.2575C131.51 14.6833 131.81 14.958 132.632 15.1073L135.582 15.6603C138.776 16.2833 140.005 17.7063 140.005 19.6288C140.005 22.3937 137.241 23.8462 134.214 23.8462C131.94 23.8901 129.699 23.3011 127.74 22.1449Z" fill="#011B33"/>
<path d="M140.669 10.7627H142.566V7.24394L145.884 5.09839V10.7627H147.83V13.6585H145.885V23.5181H142.568V13.6585H140.667V10.7627H140.669Z" fill="#011B33"/>
<path d="M28.3241 12.8143C28.2687 12.0047 28.136 11.2023 27.9278 10.418C26.9785 6.91585 24.9786 4.16018 21.9298 2.19342C20.0095 0.944521 17.8037 0.203144 15.5189 0.0386486C14.559 -0.0314639 13.5945 -0.00552955 12.6398 0.116066C11.6339 0.249196 10.6452 0.489573 9.69056 0.833094C7.14835 1.75011 4.92961 3.39018 3.30725 5.55159C1.68489 7.71299 0.729655 10.3015 0.559045 12.9986C0.52771 13.4944 0.52771 13.994 0.52771 14.4917V26.5908C0.52771 26.9051 0.652581 27.2066 0.874852 27.4289C1.09712 27.6512 1.39859 27.776 1.71293 27.776H6.38743C6.67997 27.7742 6.96167 27.6651 7.17911 27.4694C7.39656 27.2737 7.53462 27.005 7.56712 26.7143C7.59788 26.6007 7.61399 26.4836 7.61505 26.3659V26.0858C7.61229 26.0643 7.61229 26.0427 7.61505 26.0212V25.9899C7.64693 25.9984 7.67694 26.0128 7.70352 26.0323C9.452 26.9992 11.3884 27.5776 13.3808 27.7281C14.1788 27.7871 14.9803 27.7791 15.777 27.7041C17.6524 27.5314 19.4727 26.9766 21.1255 26.0737C22.7784 25.1709 24.2289 23.9392 25.3878 22.4545C27.0395 20.3767 28.0503 17.8627 28.2964 15.2197C28.3798 14.4205 28.3891 13.6152 28.3241 12.8143ZM16.9327 20.5449C16.9245 20.5875 16.9015 20.6258 16.8678 20.6532C16.8341 20.6805 16.7918 20.695 16.7484 20.6942H12.1402C12.0969 20.695 12.0546 20.6805 12.0209 20.6532C11.9872 20.6258 11.9642 20.5875 11.9559 20.5449V20.5154V20.344C11.9549 20.1325 11.9784 19.9216 12.026 19.7154C12.0555 19.6454 12.0739 19.5625 12.1034 19.485C12.1329 19.4076 12.1624 19.3357 12.1919 19.2602C12.2214 19.1846 12.2693 19.1164 12.3098 19.0519L12.3762 18.9523C12.4195 18.8879 12.4669 18.8264 12.5181 18.768C12.5716 18.7017 12.625 18.6445 12.6785 18.5837C12.9558 18.3109 13.2928 18.1065 13.6628 17.9865C13.3441 17.8129 13.0921 17.5383 12.9467 17.2058C12.8013 16.8733 12.7706 16.5018 12.8595 16.15C12.9484 15.7981 13.1519 15.4859 13.4378 15.2624C13.7237 15.0389 14.0759 14.9169 14.4388 14.9156C14.8721 14.9189 15.2869 15.0915 15.5945 15.3967C15.7726 15.5759 15.9067 15.794 15.9862 16.0338C16.0657 16.2737 16.0885 16.5287 16.0528 16.7788C16.017 17.0289 15.9238 17.2673 15.7803 17.4753C15.6368 17.6832 15.447 17.8551 15.2259 17.9773C15.7236 18.1413 16.1568 18.4586 16.4633 18.8837C16.7699 19.3088 16.9342 19.8199 16.9327 20.344C16.9327 20.4104 16.9327 20.4822 16.9327 20.5449ZM24.8772 10.5065H4.01884C3.97975 10.5063 3.94127 10.4967 3.90658 10.4787C3.87189 10.4606 3.84198 10.4346 3.81931 10.4028C3.79663 10.3709 3.78184 10.3341 3.77616 10.2955C3.77047 10.2568 3.77405 10.2173 3.78659 10.1803C4.56489 7.97462 6.00816 6.06468 7.91748 4.71371C9.8268 3.36274 12.1082 2.63725 14.4471 2.63725C16.786 2.63725 19.0674 3.36274 20.9767 4.71371C22.886 6.06468 24.3293 7.97462 25.1076 10.1803C25.1201 10.2171 25.1237 10.2565 25.1181 10.295C25.1125 10.3335 25.0979 10.3702 25.0754 10.402C25.0529 10.4338 25.0233 10.4599 24.9888 10.4781C24.9544 10.4962 24.9161 10.506 24.8772 10.5065Z" fill="#011B33"/>
</g>
<defs>
<clipPath id="clip0_1_1622">
<rect width="147.286" height="27.9844" fill="white" transform="translate(0.536621)"/>
</clipPath>
</defs>
</svg>
