<svg width="77" height="28" viewBox="0 0 77 28" fill="none" xmlns="http://www.w3.org/2000/svg">
<g clip-path="url(#clip0_2_2087)">
<path fill-rule="evenodd" clip-rule="evenodd" d="M14.8665 27.2706L19.109 15.6467C19.9505 13.5931 21.2571 13.5355 21.4055 13.5361C22.2726 13.5487 23.4553 13.0474 25.0898 11.6007C25.2068 11.4975 25.325 11.389 25.4469 11.276L25.5859 11.1448C27.7374 9.26986 29.9543 8.62964 31.6014 8.62964C34.1547 8.62964 35.615 9.58453 35.8174 11.8484C37.7173 9.65534 40.4681 8.62964 42.7027 8.62964C47.2072 8.62964 47.3608 11.7068 45.8762 15.7747L41.6809 27.2706H36.928L40.8915 16.4112C41.5108 14.7138 42.3886 12.3082 39.6579 12.3082C36.501 12.3082 34.742 16.0575 33.8769 18.428L30.6499 27.2707H25.8974L29.861 16.4113C30.4807 14.7138 31.3582 12.3083 28.627 12.3083C25.4704 12.3083 23.7123 16.0576 22.8468 18.4281L19.6194 27.2708H14.8665V27.2706Z" fill="#011B33"/>
<path fill-rule="evenodd" clip-rule="evenodd" d="M43.2996 27.2708L49.9478 9.0542H54.7003L48.0519 27.2708H43.2996Z" fill="#011B33"/>
<path d="M19.2307 8.96405C19.6171 9.03969 20.0391 9.13359 20.4873 9.25058L20.7017 9.30189C21.1254 9.42323 21.5756 9.56059 22.04 9.72274C19.4844 12.7394 15.5416 12.1304 15.5416 12.1304L15.2906 12.0916H14.8813C13.5842 12.096 11.8506 12.556 11.1458 14.1126C9.83284 17.0134 18.9299 15.1737 15.9515 21.7528C14.0299 25.9979 9.46655 27.6951 5.60013 27.6951C3.79158 27.6951 2.09075 27.3773 0.561157 26.9173L1.97948 24.2187H6.32942C6.46549 24.2255 6.60399 24.2288 6.74403 24.2288C7.94957 24.2288 10.0733 23.7692 10.8741 22.0004C12.4914 18.428 3.12211 20.8681 6.1005 14.2892C7.87743 10.363 12.1028 8.62964 15.8273 8.62964C17.2617 8.62964 18.3088 8.77578 19.2307 8.96405Z" fill="#011B33"/>
<path fill-rule="evenodd" clip-rule="evenodd" d="M64.1254 0.741455L55.7844 23.5954C54.3567 26.896 50.6809 27.2362 49.9634 27.2714L49.6906 27.2708L59.3727 0.741455H64.1254Z" fill="#011B33"/>
<path fill-rule="evenodd" clip-rule="evenodd" d="M64.0737 16.3759H72.1605C72.8576 14.0769 72.5171 12.096 69.8571 12.096C67.1962 12.096 65.1772 13.9354 64.0737 16.3759ZM66.422 24.2288C66.5627 24.2288 66.7037 24.2255 66.8444 24.2193H72.4899L71.7511 26.2447C69.6643 27.2 67.4973 27.6951 64.9437 27.6951C58.9138 27.6951 56.6679 24.2288 58.8496 18.2508C60.7732 12.9804 65.163 8.62964 70.8383 8.62964C77.6128 8.62964 77.8368 13.2634 75.5131 19.6304H62.8861C62.0272 22.5666 63.4775 24.2288 66.422 24.2288Z" fill="#011B33"/>
<path fill-rule="evenodd" clip-rule="evenodd" d="M50.4178 7.72422L51.5602 4.59424C51.7715 4.05961 52.3496 3.19604 54.816 3.19604H56.8231L56.6741 3.6033C55.0826 7.70782 50.6836 7.72337 50.6836 7.72337L50.4178 7.72422Z" fill="#022B50"/>
</g>
<defs>
<clipPath id="clip0_2_2087">
<rect width="76.321" height="27.9844" fill="white" transform="translate(0.206665)"/>
</clipPath>
</defs>
</svg>
